<svg xmlns="http://www.w3.org/2000/svg" width="1024" height="1024" viewBox="0 0 1024 1024">
<g>
<path d="M 1023.00 231.08 C1023.00,233.24 1023.22,235.00 1023.50,235.00 C1023.78,235.00 1024.00,182.12 1024.00,117.50 L 1024.00 1024.00 L 0.00 1024.00 L 0.00 0.00 L 1024.00 0.00 L 900.75 0.14 C830.09,0.22 781.94,0.63 787.91,1.08 C833.04,4.54 876.29,19.66 913.00,44.81 C927.40,54.67 936.26,62.13 950.01,75.93 C980.56,106.61 1002.32,143.77 1014.56,186.18 C1018.25,198.94 1023.00,224.23 1023.00,231.08 ZM 504.50 735.58 C512.19,739.02 522.29,736.28 527.71,729.29 C536.19,718.36 627.07,571.34 664.81,507.50 C695.24,456.02 704.42,435.68 710.19,407.00 C712.19,397.04 712.49,392.61 712.45,374.00 C712.41,357.78 711.96,350.05 710.59,342.50 C706.96,322.42 700.57,303.96 690.35,284.00 C657.23,219.32 589.12,179.00 512.98,179.00 C471.59,179.00 430.55,191.23 398.33,213.16 C325.18,262.95 295.02,350.42 322.20,433.98 C330.04,458.10 348.89,491.62 413.04,595.57 C426.89,618.01 439.69,638.65 441.47,641.43 C443.26,644.22 452.97,659.78 463.05,676.00 C496.27,729.46 498.74,733.01 504.50,735.58 ZM 523.08 687.25 C517.97,695.37 513.40,702.25 512.92,702.55 C512.12,703.04 509.98,700.02 502.11,687.27 C500.68,684.94 497.62,680.11 495.33,676.55 C489.49,667.46 466.89,631.50 459.47,619.50 C456.08,614.00 449.80,603.88 445.52,597.00 C441.24,590.12 432.10,575.28 425.19,564.00 C418.29,552.72 410.27,539.67 407.38,535.00 C404.49,530.33 400.44,523.59 398.38,520.02 C396.33,516.46 391.95,509.26 388.65,504.02 C379.15,488.96 361.32,457.46 355.99,446.35 C336.32,405.30 333.40,364.65 347.05,322.00 C351.36,308.55 362.76,286.13 370.70,275.50 C379.87,263.22 397.52,245.81 409.00,237.72 C420.48,229.63 443.01,218.28 456.00,214.03 C479.47,206.37 508.75,203.22 531.51,205.90 C605.76,214.66 663.52,264.05 681.40,334.10 C686.92,355.69 688.22,374.99 685.44,393.73 C682.13,416.06 675.54,435.37 664.38,455.50 C649.61,482.14 574.26,606.42 542.82,656.00 C537.07,665.08 528.18,679.14 523.08,687.25 ZM 484.00 837.38 C494.88,838.03 547.67,837.09 561.50,836.01 C632.41,830.43 693.44,813.35 731.97,788.29 C755.85,772.76 769.76,758.63 778.07,741.48 C787.26,722.48 787.01,704.88 777.25,685.50 C766.26,663.67 744.98,646.66 708.50,630.54 C689.11,621.97 649.27,609.99 640.21,610.00 C629.05,610.02 623.30,622.86 630.80,631.02 C633.12,633.53 636.14,634.66 652.00,638.94 C673.77,644.81 680.55,647.08 696.00,653.68 C747.62,675.73 767.98,703.07 754.24,731.91 C750.76,739.21 733.37,756.71 722.50,763.85 C680.13,791.68 606.07,809.07 523.00,810.70 C471.57,811.71 429.33,807.14 382.00,795.45 C334.19,783.64 301.95,768.16 282.11,747.49 C265.56,730.26 262.26,715.44 270.95,697.50 C276.17,686.74 283.78,678.60 296.72,669.94 C318.26,655.55 336.71,647.97 373.50,638.42 C389.07,634.38 390.77,633.71 393.75,630.52 C399.06,624.81 397.65,616.20 390.70,611.96 C386.45,609.36 381.89,609.49 369.68,612.55 C322.21,624.45 288.01,640.69 265.69,661.95 C256.69,670.51 247.69,683.42 244.41,692.44 C238.05,709.97 239.20,726.70 247.98,744.50 C255.50,759.75 267.09,771.96 286.02,784.56 C328.59,812.90 401.93,832.47 484.00,837.38 ZM 0.18 123.25 C0.28,189.19 0.51,241.12 0.69,241.12 C0.70,241.12 0.70,241.08 0.71,241.00 C2.89,205.41 13.74,166.74 30.15,136.05 C72.23,57.40 153.15,5.58 241.50,0.71 C241.60,0.70 241.65,0.70 241.65,0.69 C241.65,0.51 189.80,0.29 123.75,0.19 L 0.00 0.00 ZM 0.18 900.75 L 0.00 1024.00 L 118.25 1023.85 C182.28,1023.77 233.54,1023.55 233.54,1023.35 C233.54,1023.35 233.53,1023.35 233.50,1023.34 C213.06,1020.91 198.77,1018.09 183.30,1013.41 C80.16,982.23 7.27,890.26 0.71,783.00 C0.70,782.92 0.70,782.88 0.69,782.88 C0.51,782.88 0.28,834.81 0.18,900.75 ZM 792.50 1023.29 C792.45,1023.30 792.43,1023.30 792.43,1023.30 C792.43,1023.51 842.83,1023.74 906.25,1023.83 L 1024.00 1024.00 L 1023.85 906.25 C1023.77,842.50 1023.55,791.46 1023.35,791.46 C1023.35,791.46 1023.35,791.47 1023.34,791.50 C1017.08,844.20 1001.68,883.43 971.55,923.50 C961.71,936.58 942.09,956.93 929.60,967.00 C901.83,989.40 865.06,1007.87 831.10,1016.48 C821.78,1018.84 801.09,1022.49 792.50,1023.29 ZM 481.36 452.71 C484.06,454.25 487.50,454.32 490.32,452.90 C491.52,452.29 521.19,423.15 556.25,388.15 C562.86,381.55 568.84,375.60 574.23,370.23 C612.44,332.22 621.60,323.10 619.85,317.26 C619.04,314.60 615.96,312.62 612.33,308.89 C605.04,301.40 604.43,301.00 600.26,301.00 C594.37,301.00 592.90,301.93 583.00,311.92 C578.32,316.64 554.85,340.38 530.83,364.68 L 487.17 408.86 L 462.34 383.93 C437.76,359.26 437.46,359.00 433.31,359.00 C429.68,359.00 428.24,359.74 422.65,364.49 C412.97,372.69 410.31,377.98 413.17,383.31 C414.67,386.12 478.52,451.11 481.36,452.71 Z" fill="rgb(0,0,0)"/>
<path d="M 36.67 124.59 C48.15,105.38 62.23,87.73 78.82,71.81 C104.30,47.37 133.04,29.15 165.18,17.10 C112.29,37.38 66.56,75.07 36.67,124.59 ZM 10.91 840.58 C17.26,861.89 26.31,882.12 37.73,900.83 C25.88,881.52 17.11,861.87 10.91,840.58 ZM 44.97 912.04 C66.24,943.18 94.29,969.56 127.34,988.96 C94.66,969.80 66.43,943.59 44.97,912.04 ZM 229.65 1.65 L 237.62 0.60 C240.25,0.63 241.65,0.66 241.65,0.69 C241.65,0.70 241.60,0.70 241.50,0.71 C237.54,0.93 233.59,1.24 229.65,1.65 ZM 0.60 237.60 L 1.92 227.60 C1.38,232.10 0.98,236.57 0.71,241.00 C0.70,241.08 0.70,241.12 0.69,241.12 C0.66,241.12 0.63,239.90 0.60,237.60 ZM 0.60 786.40 C0.63,784.10 0.66,782.88 0.69,782.88 C0.70,782.88 0.70,782.92 0.71,783.00 C0.94,786.89 1.27,790.77 1.68,794.62 ZM 936.57 63.08 C929.16,56.44 922.21,51.12 913.00,44.81 C911.25,43.61 909.49,42.43 907.71,41.28 C915.38,46.22 922.83,51.58 930.00,57.34 C931.60,58.62 933.92,60.66 936.57,63.08 ZM 860.50 0.23 C872.79,0.19 886.30,0.16 900.75,0.14 L 1024.00 0.00 L 903.75 0.15 C888.45,0.17 873.86,0.20 860.50,0.23 ZM 793.56 1.58 C791.68,1.39 789.80,1.23 787.91,1.08 C787.14,1.02 787.27,0.96 788.24,0.91 C789.57,1.08 791.43,1.31 793.56,1.58 Z" fill="rgb(77,78,77)"/>
<path d="M 4.02 213.32 C6.96,195.89 11.65,179.06 17.91,163.02 C11.76,179.09 7.02,196.23 4.02,213.32 ZM 127.32 988.95 L 127.33 988.96 C140.62,996.76 154.72,1003.43 169.51,1008.82 C109.99,987.12 61.48,944.72 31.94,890.92 C33.78,894.24 35.71,897.54 37.73,900.83 C40.04,904.63 42.46,908.37 44.97,912.04 C44.97,912.04 44.97,912.04 44.97,912.04 C66.43,943.59 94.65,969.79 127.32,988.95 ZM 793.56 1.58 C791.43,1.31 789.57,1.08 788.24,0.91 C788.75,0.88 789.48,0.85 790.42,0.82 C792.06,1.15 795.13,1.64 798.75,2.14 C797.03,1.94 795.30,1.75 793.56,1.58 ZM 229.13 1.70 C232.27,1.21 234.48,0.77 234.76,0.57 C235.83,0.58 236.79,0.59 237.62,0.60 L 229.65 1.65 C229.48,1.66 229.30,1.68 229.13,1.70 ZM 0.57 234.76 C0.79,234.45 1.26,231.99 1.79,228.56 L 0.60 237.60 C0.59,236.78 0.58,235.83 0.57,234.76 ZM 0.60 786.40 L 1.68 794.62 C1.70,794.76 1.71,794.90 1.73,795.04 C1.22,791.82 0.78,789.53 0.57,789.24 C0.58,788.17 0.59,787.22 0.60,786.40 ZM 905.15 39.65 C912.40,44.19 919.45,49.12 926.29,54.41 C920.27,49.75 914.07,45.37 907.71,41.28 C906.86,40.73 906.01,40.19 905.15,39.65 ZM 161.15 18.65 C164.12,17.46 167.12,16.33 170.14,15.25 C168.48,15.85 166.82,16.46 165.18,17.10 C163.83,17.60 162.49,18.12 161.15,18.65 ZM 78.50 72.12 C81.64,69.09 84.86,66.13 88.15,63.27 C85.00,66.02 81.89,68.87 78.82,71.81 Z" fill="rgb(175,176,176)"/>
<path d="M 0.00 906.33 C0.00,841.62 0.25,788.92 0.56,789.23 C0.87,789.53 1.78,794.90 2.60,801.14 C15.59,900.98 86.35,984.11 183.30,1013.41 C198.77,1018.09 213.06,1020.91 233.50,1023.34 C235.15,1023.54 183.29,1023.77 118.25,1023.85 L 0.00 1024.00 L 0.00 906.33 ZM 792.50 1023.29 C801.09,1022.49 821.78,1018.84 831.10,1016.48 C865.06,1007.87 901.83,989.40 929.60,967.00 C942.09,956.93 961.71,936.58 971.55,923.50 C1001.68,883.43 1017.08,844.20 1023.34,791.50 C1023.54,789.85 1023.77,841.49 1023.85,906.25 L 1024.00 1024.00 L 906.25 1023.83 C841.49,1023.74 790.30,1023.50 792.50,1023.29 ZM 484.00 837.38 C401.93,832.47 328.59,812.90 286.02,784.56 C267.09,771.96 255.50,759.75 247.98,744.50 C239.20,726.70 238.05,709.97 244.41,692.44 C247.69,683.42 256.69,670.51 265.69,661.95 C288.01,640.69 322.21,624.45 369.68,612.55 C381.89,609.49 386.45,609.36 390.70,611.96 C397.65,616.20 399.06,624.81 393.75,630.52 C390.77,633.71 389.07,634.38 373.50,638.42 C336.71,647.97 318.26,655.55 296.72,669.94 C283.78,678.60 276.17,686.74 270.95,697.50 C262.26,715.44 265.56,730.26 282.11,747.49 C301.95,768.16 334.19,783.64 382.00,795.45 C429.33,807.14 471.57,811.71 523.00,810.70 C606.07,809.07 680.13,791.68 722.50,763.85 C733.37,756.71 750.76,739.21 754.24,731.91 C767.98,703.07 747.62,675.73 696.00,653.68 C680.55,647.08 673.77,644.81 652.00,638.94 C636.14,634.66 633.12,633.53 630.80,631.02 C623.30,622.86 629.05,610.02 640.21,610.00 C649.27,609.99 689.11,621.97 708.50,630.54 C744.98,646.66 766.26,663.67 777.25,685.50 C787.01,704.88 787.26,722.48 778.07,741.48 C769.76,758.63 755.85,772.76 731.97,788.29 C693.44,813.35 632.41,830.43 561.50,836.01 C547.67,837.09 494.88,838.03 484.00,837.38 ZM 504.50 735.58 C498.74,733.01 496.27,729.46 463.05,676.00 C452.97,659.78 443.26,644.22 441.47,641.43 C439.69,638.65 426.89,618.01 413.04,595.57 C348.89,491.62 330.04,458.10 322.20,433.98 C295.02,350.42 325.18,262.95 398.33,213.16 C430.55,191.23 471.59,179.00 512.98,179.00 C589.12,179.00 657.23,219.32 690.35,284.00 C700.57,303.96 706.96,322.42 710.59,342.50 C711.96,350.05 712.41,357.78 712.45,374.00 C712.49,392.61 712.19,397.04 710.19,407.00 C704.42,435.68 695.24,456.02 664.81,507.50 C627.07,571.34 536.19,718.36 527.71,729.29 C522.29,736.28 512.19,739.02 504.50,735.58 ZM 523.08 687.25 C528.18,679.14 537.07,665.08 542.82,656.00 C574.26,606.42 649.61,482.14 664.38,455.50 C675.54,435.37 682.13,416.06 685.44,393.73 C688.22,374.99 686.92,355.69 681.40,334.10 C663.52,264.05 605.76,214.66 531.51,205.90 C508.75,203.22 479.47,206.37 456.00,214.03 C443.01,218.28 420.48,229.63 409.00,237.72 C397.52,245.81 379.87,263.22 370.70,275.50 C362.76,286.13 351.36,308.55 347.05,322.00 C333.40,364.65 336.32,405.30 355.99,446.35 C361.32,457.46 379.15,488.96 388.65,504.02 C391.95,509.26 396.33,516.46 398.38,520.02 C400.44,523.59 404.49,530.33 407.38,535.00 C410.27,539.67 418.29,552.72 425.19,564.00 C432.10,575.28 441.24,590.12 445.52,597.00 C449.80,603.88 456.08,614.00 459.47,619.50 C466.89,631.50 489.49,667.46 495.33,676.55 C497.62,680.11 500.68,684.94 502.11,687.27 C509.98,700.02 512.12,703.04 512.92,702.55 C513.40,702.25 517.97,695.37 523.08,687.25 ZM 0.00 117.67 L 0.00 0.00 L 117.67 -0.00 C182.38,-0.00 235.08,0.25 234.77,0.56 C234.47,0.87 229.10,1.78 222.86,2.60 C108.07,17.53 17.53,108.07 2.60,222.86 C1.78,229.10 0.87,234.47 0.56,234.77 C0.25,235.08 0.00,182.38 0.00,117.67 ZM 1023.00 231.08 C1023.00,224.23 1018.25,198.94 1014.56,186.18 C1002.32,143.77 980.56,106.61 950.01,75.93 C943.13,69.02 934.12,60.66 930.00,57.34 C892.77,27.42 848.85,8.68 801.57,2.52 C795.00,1.66 789.41,0.75 789.15,0.48 C788.88,0.22 841.62,-0.00 906.33,-0.00 L 1024.00 0.00 L 1024.00 117.50 C1024.00,182.12 1023.78,235.00 1023.50,235.00 C1023.22,235.00 1023.00,233.24 1023.00,231.08 ZM 481.36 452.71 C478.52,451.11 414.67,386.12 413.17,383.31 C410.31,377.98 412.97,372.69 422.65,364.49 C428.24,359.74 429.68,359.00 433.31,359.00 C437.46,359.00 437.76,359.26 462.34,383.93 L 487.17 408.86 L 530.83 364.68 C554.85,340.38 578.32,316.64 583.00,311.92 C592.90,301.93 594.37,301.00 600.26,301.00 C604.43,301.00 605.04,301.40 612.33,308.89 C625.04,321.95 631.00,313.52 556.25,388.15 C521.19,423.15 491.52,452.29 490.32,452.90 C487.50,454.32 484.06,454.25 481.36,452.71 Z" fill="rgb(251,251,250)"/>
</g>
</svg>